<svg width="543" height="123" viewBox="0 0 543 123" fill="none" xmlns="http://www.w3.org/2000/svg">
<path d="M44.005 0.607994C52.1117 0.607994 59.8343 0.949328 67.173 1.632C67.685 2.48533 67.941 3.72266 67.941 5.34399C67.941 6.62399 67.7703 7.73333 67.429 8.672C60.6023 7.904 52.3677 7.56266 42.725 7.64799V79.84C42.725 84.5333 43.1943 86.88 44.133 86.88L52.197 86.624C52.5383 87.2213 52.709 88.032 52.709 89.056C52.709 89.7387 52.581 90.464 52.325 91.232C46.693 92.8533 41.2317 93.664 35.941 93.664C33.2103 93.664 31.2477 93.536 30.053 93.28C28.9437 93.1093 28.1757 92.6827 27.749 92C27.4077 91.232 27.2797 89.952 27.365 88.16V8.672C17.381 9.44 8.71967 10.6773 1.381 12.384C0.869 11.1893 0.613 9.99466 0.613 8.8C0.613 8.11733 0.783667 7.00799 1.125 5.47199C13.413 2.22933 27.7063 0.607994 44.005 0.607994ZM123.681 31.584C124.705 33.5467 125.217 36.3627 125.217 40.032V79.328C125.217 84.448 122.273 88.1173 116.385 90.336C110.497 92.4693 100.982 93.536 87.841 93.536C83.489 93.536 80.1183 93.1093 77.729 92.256C75.3397 91.4027 73.5903 89.9947 72.481 88.032C71.457 86.0693 70.945 83.2533 70.945 79.584V40.416C70.945 35.1253 73.9317 31.4133 79.905 29.28C85.9637 27.232 95.521 26.208 108.577 26.208C112.929 26.208 116.257 26.6347 118.561 27.488C120.95 28.256 122.657 29.6213 123.681 31.584ZM107.553 85.856C109.686 84.4907 110.71 82.144 110.625 78.816V41.568C110.625 37.728 110.07 35.1253 108.961 33.76C107.937 32.3093 106.017 31.584 103.201 31.584C95.777 31.584 90.9983 32.2667 88.865 33.632C86.561 35.0827 85.4517 37.5147 85.537 40.928V78.176C85.537 82.016 86.049 84.6187 87.073 85.984C88.097 87.3493 90.145 88.032 93.217 88.032C100.726 87.8613 105.505 87.136 107.553 85.856ZM145.532 40.032C145.532 35.3387 145.063 32.992 144.124 32.992L135.292 33.248C134.951 32.6507 134.78 31.84 134.78 30.816C134.78 30.1333 134.908 29.408 135.164 28.64C140.796 27.0187 146.556 26.208 152.444 26.208C155.004 26.208 156.796 26.336 157.82 26.592C158.844 26.7627 159.484 27.232 159.74 28C160.081 28.6827 160.209 29.92 160.124 31.712C168.572 28.0427 174.588 26.208 178.172 26.208C182.865 26.208 186.193 26.976 188.156 28.512C190.119 29.9627 191.1 32.4373 191.1 35.936V47.968C191.1 49.1627 190.417 50.016 189.052 50.528C185.809 51.4667 182.353 51.936 178.684 51.936C177.233 51.936 176.508 51.2107 176.508 49.76V39.136C176.508 35.9787 174.844 34.4 171.516 34.4C168.871 34.4 165.073 35.424 160.124 37.472V79.84C160.124 84.5333 160.593 86.88 161.532 86.88L170.364 86.624C170.705 87.2213 170.876 88.032 170.876 89.056C170.876 89.7387 170.748 90.464 170.492 91.232C164.86 92.8533 159.1 93.664 153.212 93.664C150.652 93.664 148.86 93.536 147.836 93.28C146.812 93.1093 146.129 92.6827 145.788 92C145.532 91.232 145.447 89.952 145.532 88.16V40.032ZM205.782 40.032C205.782 35.3387 205.313 32.992 204.374 32.992L195.542 33.248C195.201 32.6507 195.03 31.84 195.03 30.816C195.03 30.1333 195.158 29.408 195.414 28.64C201.046 27.0187 206.806 26.208 212.694 26.208C215.254 26.208 217.046 26.336 218.07 26.592C219.094 26.7627 219.734 27.232 219.99 28C220.331 28.6827 220.459 29.92 220.374 31.712L225.11 30.304C228.097 29.4507 230.23 28.896 231.51 28.64C231.425 28.64 232.363 28.4267 234.326 28C236.715 27.4027 239.617 26.8907 243.03 26.464C245.078 26.2933 246.529 26.208 247.382 26.208C252.075 26.208 255.403 26.976 257.366 28.512C259.329 29.9627 260.31 32.4373 260.31 35.936V77.024C260.395 84.0213 256.641 88.16 249.046 89.44C239.83 91.232 230.273 92.2987 220.374 92.64V118.88C220.374 120.075 219.691 120.928 218.326 121.44C215.083 122.379 211.627 122.848 207.958 122.848C206.507 122.848 205.782 122.123 205.782 120.672V40.032ZM238.55 33.888C235.905 33.888 229.846 35.1253 220.374 37.6V86.88C227.457 86.4533 233.046 85.8133 237.142 84.96C240.641 84.2773 242.945 83.424 244.054 82.4C245.163 81.376 245.718 79.4987 245.718 76.768V39.136C245.718 35.6373 243.329 33.888 238.55 33.888ZM315.086 85.856C320.974 84.9173 325.241 84.1067 327.886 83.424C328.313 84.2773 328.526 85.344 328.526 86.624C328.526 87.7333 328.355 88.5867 328.014 89.184C316.579 92.1707 304.035 93.664 290.382 93.664C285.774 93.664 282.403 92.9387 280.27 91.488C278.222 90.0373 277.198 87.648 277.198 84.32V40.416C277.198 35.1253 280.014 31.4133 285.646 29.28C291.107 27.232 299.982 26.208 312.27 26.208C316.622 26.208 319.95 26.6347 322.254 27.488C324.643 28.256 326.35 29.6213 327.374 31.584C328.398 33.5467 328.91 36.3627 328.91 40.032V49.12C328.91 52.704 328.014 55.52 326.222 57.568C324.43 59.5307 321.571 60.9387 317.646 61.792C308.174 63.2427 299.555 64.224 291.79 64.736V79.328C291.79 82.5707 292.387 84.704 293.582 85.728C294.862 86.752 297.422 87.264 301.262 87.264C304.675 87.264 309.283 86.7947 315.086 85.856ZM294.734 33.76C292.601 35.1253 291.619 37.5147 291.79 40.928V58.848C297.507 58.336 302.158 57.7387 305.742 57.056C309.241 56.288 311.545 55.392 312.654 54.368C313.763 53.344 314.318 51.4667 314.318 48.736V40.928C314.318 37.344 313.763 34.912 312.654 33.632C311.63 32.2667 309.71 31.584 306.894 31.584C300.921 31.584 296.867 32.3093 294.734 33.76ZM408.478 89.056C408.478 89.7387 408.35 90.464 408.094 91.232C402.462 92.8533 396.702 93.664 390.814 93.664C388.254 93.664 386.462 93.536 385.438 93.28C384.414 93.1093 383.731 92.6827 383.39 92C383.134 91.232 383.049 89.952 383.134 88.16L378.398 89.44C375.411 90.2933 372.382 91.104 369.31 91.872C366.835 92.4693 363.891 92.9813 360.478 93.408C358.43 93.5787 356.979 93.664 356.126 93.664C351.433 93.664 348.105 92.9387 346.142 91.488C344.179 89.952 343.198 87.4347 343.198 83.936V41.184C343.198 34.4427 346.953 30.3893 354.462 29.024C362.569 27.488 372.126 26.5493 383.134 26.208V14.56C383.134 9.86666 382.665 7.52 381.726 7.52L372.894 7.77599C372.553 7.17866 372.382 6.368 372.382 5.34399C372.382 4.66133 372.51 3.93599 372.766 3.168C378.398 1.54666 384.158 0.735992 390.046 0.735992C392.606 0.735992 394.398 0.863993 395.422 1.12C396.446 1.29066 397.086 1.76 397.342 2.52799C397.683 3.21066 397.811 4.448 397.726 6.24V79.84C397.726 84.3627 398.153 86.624 399.006 86.624H407.966C408.307 87.2213 408.478 88.032 408.478 89.056ZM364.958 85.984C368.627 85.984 374.686 84.7893 383.134 82.4V32.096C375.283 32.5227 369.694 33.0773 366.366 33.76C362.953 34.4427 360.649 35.296 359.454 36.32C358.345 37.344 357.79 39.008 357.79 41.312V80.736C357.79 84.2347 360.179 85.984 364.958 85.984ZM470.181 31.584C471.205 33.5467 471.717 36.3627 471.717 40.032V79.328C471.717 84.448 468.773 88.1173 462.885 90.336C456.997 92.4693 447.482 93.536 434.341 93.536C429.989 93.536 426.618 93.1093 424.229 92.256C421.84 91.4027 420.09 89.9947 418.981 88.032C417.957 86.0693 417.445 83.2533 417.445 79.584V40.416C417.445 35.1253 420.432 31.4133 426.405 29.28C432.464 27.232 442.021 26.208 455.077 26.208C459.429 26.208 462.757 26.6347 465.061 27.488C467.45 28.256 469.157 29.6213 470.181 31.584ZM454.053 85.856C456.186 84.4907 457.21 82.144 457.125 78.816V41.568C457.125 37.728 456.57 35.1253 455.461 33.76C454.437 32.3093 452.517 31.584 449.701 31.584C442.277 31.584 437.498 32.2667 435.365 33.632C433.061 35.0827 431.952 37.5147 432.037 40.928V78.176C432.037 82.016 432.549 84.6187 433.573 85.984C434.597 87.3493 436.645 88.032 439.717 88.032C447.226 87.8613 452.005 87.136 454.053 85.856ZM541.056 31.584C542.08 33.5467 542.592 36.3627 542.592 40.032V79.328C542.592 84.448 539.648 88.1173 533.76 90.336C527.872 92.4693 518.357 93.536 505.216 93.536C500.864 93.536 497.493 93.1093 495.104 92.256C492.715 91.4027 490.965 89.9947 489.856 88.032C488.832 86.0693 488.32 83.2533 488.32 79.584V40.416C488.32 35.1253 491.307 31.4133 497.28 29.28C503.339 27.232 512.896 26.208 525.952 26.208C530.304 26.208 533.632 26.6347 535.936 27.488C538.325 28.256 540.032 29.6213 541.056 31.584ZM524.928 85.856C527.061 84.4907 528.085 82.144 528 78.816V41.568C528 37.728 527.445 35.1253 526.336 33.76C525.312 32.3093 523.392 31.584 520.576 31.584C513.152 31.584 508.373 32.2667 506.24 33.632C503.936 35.0827 502.827 37.5147 502.912 40.928V78.176C502.912 82.016 503.424 84.6187 504.448 85.984C505.472 87.3493 507.52 88.032 510.592 88.032C518.101 87.8613 522.88 87.136 524.928 85.856Z" fill="white"/>
</svg>
